<?xml version="1.0" encoding="UTF-8"?>
<svg id="oasisclimb" xmlns="http://www.w3.org/2000/svg" version="1.1" viewBox="0 0 726.75 346.93">
  <!-- Generator: Adobe Illustrator 30.0.0, SVG Export Plug-In . SVG Version: 2.1.1 Build 123)  -->
  <defs>
    <style>
      .st0 {
        fill: #f8c52d;
      }
    </style>
  </defs>
  <polygon class="st0" points="598.64 204.8 547.33 292.14 479.48 205.54 475.62 204.83 492.89 342.02 521.19 342.02 514 286.86 554.54 339.63 584.02 286.86 591.23 342.02 619.05 342.02 601.78 204.83 598.64 204.8"/>
  <path class="st0" d="M220.1,145.45c7.62,47.2,61.12,57.53,96.23,31.76,49.45-36.28,44.51-130.37-29.79-124.29-44.19,3.61-73.19,50.71-66.44,92.53ZM287.98,79.78h-.01c12.05-1.03,22.95,4.53,28.65,15.2,13.44,25.15-6.52,66-35.51,68.59-51.33,4.59-40.1-79.77,6.87-83.79Z"/>
  <path class="st0" d="M726.49,302.21c-.36-4.09-2.11-9.48-3.75-13.27-4.8-11.09-15.18-21.77-27.9-22.23l4.3-3.61c9.43-13.09,2.5-31.97-8.14-42.2-18.27-17.58-42.69-11.74-65.72-12.71l16.81,133.8,51.56.05c14.87-.7,31.03-9.89,32.84-25.92h0c.38-3.37.31-10.47,0-13.91ZM656.46,235.05h11.28c.78,0,4.31,1.86,5.19,2.48,4.81,3.37,6.87,9.66,5.96,15.39-1.4,8.83-12.44,7.83-19.1,7.34l-3.33-25.21ZM666.52,315.64l-3.83-31.18c6.45.55,14.09-.75,20.39,0h0c8.67,1.03,16.45,8.11,17.04,17.01,1.17,17.69-22.41,13.82-33.59,14.17Z"/>
  <path class="st0" d="M703.95,160c7.26-20.65-.75-34.31-17.41-45.93-9.24-6.44-34.9-15.69-21.22-30.6,8.55-9.32,25.74-4.49,28.56,7.67l22.03-15.07c-10.79-33.4-60.15-29.94-76.15-2.8-8.36,14.18-7.53,32.06,4.2,44.05,8.62,8.81,29.78,16.69,33.69,27.71,3.47,9.79-5.25,17.06-14.3,18.02-13.35,1.41-22.52-5.96-29.2-16.68l-21.71,15.04c13.95,40.42,77.73,37.8,91.51-1.41Z"/>
  <polygon class="st0" points="693.88 91.15 693.88 91.14 693.87 91.15 693.88 91.15"/>
  <path class="st0" d="M362.66,188.06l10.75-18.4,48.49-.31,3.84,18.7h27.58l-33.08-136.74c-1.9.01-3.71-.4-4.78,1.5l-84.49,134.26.51.98h0s31.18.01,31.18.01ZM408.7,110.33l7.92,35.98h-29.26l21.34-35.98Z"/>
  <polygon class="st0" points="373.45 315.16 359.3 208.19 332.2 208.19 348.99 342.02 427.66 342.02 424.28 315.18 373.45 315.16"/>
  <polygon class="st0" points="425.98 208.19 442.05 342.02 470.35 342.02 453.08 208.19 425.98 208.19"/>
  <path class="st0" d="M550.23,165.5c12.07-23.48,2.25-40.17-17.75-53.26-5.87-3.84-18.55-9.29-21.3-15.63-3.47-8.02,4.11-17.05,12.18-17.94,9.13-1,16.51,4.11,19.69,12.47l21.68-14.6c-11.93-38.16-72.1-28.87-80.63,7.02-6.87,28.95,12.17,35.79,31.01,49.41,8.23,5.95,18.51,16.68,7.27,25.8-12.99,10.54-32.92,1.37-39.09-12.46h0c-2.58,1.7-21.97,14.06-21.96,15.48.02,1.31,3.83,8.14,4.8,9.6,19.02,28.63,68.67,24.12,84.1-5.89Z"/>
  <polygon class="st0" points="590.99 188.05 617.13 54.7 590.03 54.7 563.88 188.05 590.99 188.05"/>
  <path class="st0" d="M146.62,202.11c-.45-.31-.95-.64-1.51-.65,8.33-7.8,16.83-16,21.11-26.85l-23.2-12.93c-4.79,9.3-11.3,17.6-21.1,21.97-10.13-8.67-14.44-21.43-24.29-30.39-10.49-9.54-24.62-15.09-38.86-15.1-.05-3.78,1.32-7.9,2.8-11.36,5.92-13.84,18.04-20.58,28.87-30.13,13.07-11.52,29.37-24.94,38.57-39.62,7.29-11.63,8.89-22.47,23.53-27.79,26.44-9.61,50.78,16.23,39.67,42.07-.91,2.11-7.49,12.93-7.25,13.76l21.59,12.99,1.84.21-.03-.02c6.03-11.18,12.58-21.61,13.48-34.72,3.42-49.65-50.85-81.45-91.96-52.62-12.94,9.07-14.93,16.83-22.29,29.51-10.89,18.75-36.5,35.76-52.68,50.45-15.45,14.03-23.69,33.07-24.21,53.98-26.18,14.39-37.6,45.49-26.51,73.51,3.23,8.19,9.14,15.21,14.05,22.42l21.28-15.69c-2.41-5.4-6.95-9.81-9.47-15.32-4.82-10.54-3.87-23.99,3.78-33.01.51-.6,3.2-3.59,3.82-3.13,11.41,27.29,40.38,43.71,69.82,41.75,2.46-.16,8.39-1.86,10.16-1.1,19.44,17.66,51.92,26.63,54.33,56.97,2.76,34.79-32.03,59.69-63.73,44.06-8.58-4.23-14-10.76-19.48-18.32l-21.29,15.89c21.39,35.76,70.12,45.01,103.51,19.72,25.73-19.5,35.24-54.5,22.67-84.47-9.75-23.25-27.53-32.35-47.02-46.04ZM88.52,186.12c-8.54-2.33-16.22-8.14-21.56-15.13-.5-.65-3.8-5.08-3.37-5.49,11.77,1.93,19.94,10.28,24.94,20.62h-.01Z"/>
  <path class="st0" d="M240.82,256.63c2.56-9.73,9.63-18.21,19.19-21.59,18.23-6.45,33.55,4.84,45.58,17.27,1.66-2.22,14.92-17.09,14.58-18.36-.06-.21-2.38-2.95-2.82-3.46-13.73-15.92-38.09-26.41-59.11-24.55-25.64,2.27-45.69,23.43-47.41,49-2,29.59,11.84,60.13,36.32,76.92,25.21,17.29,62.84,19.02,83.58-5.98l-19.39-23.66c-31.47,39.09-81.21-4.89-70.52-45.59Z"/>
  <rect class="st0" x="23.83" y="239.32" width="43.4" height="36.54" transform="translate(-141.95 75.17) rotate(-35.76)"/>
  <rect class="st0" x="45.75" y="279.88" width="43.76" height="16.64" transform="translate(-156.35 94.64) rotate(-35.96)"/>
  <rect class="st0" x="164.13" y="96.24" width="36.49" height="43.63" transform="translate(-11.27 216.53) rotate(-59.87)"/>
  <rect class="st0" x="155.24" y="129.08" width="16.69" height="43.32" transform="translate(-49.06 216.04) rotate(-59.73)"/>
</svg>